
<svg xmlns="http://www.w3.org/2000/svg" version="1.1" xmlns:xlink="http://www.w3.org/1999/xlink" preserveAspectRatio="none" x="0px" y="0px" width="550px" height="400px" viewBox="0 0 550 400">
<defs>
<g id="demon_0_Layer0_0_FILL">
<path fill="#000000" stroke="none" d="
M 463.15 316.5
L 334.55 298.15
Q 292.9 287.15 279.8 253.15 276.6 247.7 281.5 240.65
L 267.6 256.45
Q 257.55 257.5 247.45 253.15 252 266.45 247.45 279.75 220.95 299 207.8 320.05
L 193.4 346.85 164.05 383.15
Q 215.9 347.85 302.2 352.15
L 498.8 352.15 463.15 316.5
M 330.45 75.65
L 454.1 61.55 510.95 19.95 244.45 19.95
Q 142.85 23.7 109.95 51.8 148.75 16.6 227.7 13.7
L 472.1 13.7 490.8 0 224.3 0
Q 143.65 3.3 84.9 36.55
L 84.85 36.6
Q 84.65 36.65 84.5 36.75 63.15 48.3 48.45 67.7 47.95 68.3 47.55 68.9 25.3 99 27.2 133.7
L 2.95 174.05 12.35 174.05
Q 13.25 191.9 23.45 203.65
L 7.9 214.65
Q 11.3 232.45 0.4 252.2 -3.2 276.4 25.3 294.7 12.1 275.2 25.3 255.7 27.25 262.95 40.85 270.2 36.8 262.45 47.1 254.7
L 55.75 263.4 65.9 254.7 74.7 263.7 81.95 254.7 88.45 262.1 98.05 254.7
Q 108.4 236.1 100.4 216.15 106.75 197.05 136 181.7 111.45 199.25 110.5 224.7
L 121.7 254.7
Q 148.85 258.55 146.6 276.2
L 136.65 283.55 122.45 287.75 126.7 290.95 110.75 292 115.3 299.3 94.55 299.8 105.2 306.75 80.4 305.3 93.05 315.7
Q 70.75 313.35 58.9 295.7 63.4 319.5 82.5 329.7 104.65 344.05 109.9 366.2
L 117.95 395.2
Q 173.2 370.85 195.75 322.2 213.5 292.2 238.7 276.2 238.25 261.85 233.7 248.95 228.25 231.85 216.8 215.55 236.9 238 262.25 243.8 313.95 186.15 432.75 173.55 391.05 153.95 297.15 161.25 263.3 157.4 270.65 131.5 286.95 82.2 330.45 75.65
M 50.2 140.7
L 50.2 122.2
Q 50.45 112.75 69.5 105.2 92.15 106.55 104.9 127.7 91 154.9 64.65 164.6 49 170.25 43.35 159.7
L 50.2 140.7 Z"/>
</g>
</defs>

<g transform="matrix( 1, 0, 0, 1, 22.6,3.45) ">
<g transform="matrix( 1, 0, 0, 1, 0,0) ">
<use xlink:href="#demon_0_Layer0_0_FILL"/>
</g>
</g>
</svg>
